<?xml version="1.0" encoding="utf-8"?>
<svg width="210.617" height="186.548" viewBox="0 0 210.617 186.548" fill="none" xmlns="http://www.w3.org/2000/svg">
  <g>
    <path d="M89.2749 170.537C90.791 171.286 92.2719 171.96 93.6769 172.54C93.6769 172.54 96.2609 173.678 96.2609 173.678C101.374 175.935 106.661 178.269 111.98 180.107C117.626 182.072 125.268 184.032 130.956 184.979C131.555 185.082 132.155 185.18 132.756 185.276C132.756 185.276 138.234 186.014 138.234 186.014C138.635 186.057 139.034 186.097 139.456 186.139C139.456 186.139 140.058 186.198 140.058 186.198C140.476 186.236 140.892 186.269 141.332 186.304C141.332 186.304 141.873 186.345 141.873 186.345C142.303 186.375 142.731 186.402 143.171 186.426C143.171 186.426 143.715 186.456 143.715 186.456C144.147 186.477 144.576 186.494 145.017 186.509C145.017 186.509 145.537 186.525 145.537 186.525C145.979 186.536 146.418 186.543 146.863 186.546C146.863 186.546 147.355 186.548 147.355 186.548C147.807 186.548 148.256 186.543 148.641 186.535C148.641 186.535 149.178 186.522 149.178 186.522C149.629 186.509 150.077 186.493 150.567 186.468C150.567 186.468 150.973 186.444 150.973 186.444C151.441 186.418 151.907 186.386 152.356 186.348C152.356 186.348 152.786 186.309 152.786 186.309C153.254 186.266 153.721 186.219 154.203 186.162C154.203 186.162 154.594 186.111 154.594 186.111C155.066 186.05 155.536 185.986 156.047 185.904C156.047 185.904 156.327 185.856 156.327 185.856C156.826 185.773 157.321 185.683 157.808 185.585C157.863 185.573 157.918 185.562 157.973 185.55C157.973 185.55 158.017 185.539 158.017 185.539C161.001 184.915 163.757 183.981 166.2 182.768C166.343 182.702 166.479 182.634 166.578 182.582C166.991 182.37 167.392 182.144 167.842 181.884C167.989 181.801 168.136 181.717 168.308 181.613C168.698 181.376 169.075 181.127 169.51 180.832C169.658 180.733 169.805 180.634 169.947 180.533C170.328 180.262 170.696 179.978 171.078 179.674C171.234 179.552 171.39 179.428 171.533 179.308C171.905 178.998 172.264 178.673 172.628 178.332C172.781 178.189 172.932 178.047 173.035 177.943C173.396 177.589 173.744 177.22 174.118 176.806C174.237 176.674 174.354 176.542 174.412 176.473C174.769 176.061 175.112 175.632 175.433 175.208C175.516 175.098 175.6 174.985 175.654 174.911C177.43 174.467 179.127 173.945 180.735 173.348C185.029 173.927 189.45 173.345 193.64 171.641C201.69 168.365 207.722 161.326 209.775 152.812C210.004 151.86 210.187 150.882 210.315 149.912C210.422 149.106 210.502 148.274 210.554 147.42C210.563 147.315 210.57 147.208 210.575 147.116C210.584 146.956 210.589 146.797 210.59 146.637C210.899 138.702 208.52 130.949 204.036 125.308C203.666 124.842 203.284 124.39 202.876 123.941C202.714 123.763 202.55 123.591 202.346 123.382C201.924 122.946 201.489 122.529 201.007 122.098C200.856 121.961 200.703 121.826 200.567 121.711C200.15 121.357 199.721 121.02 199.281 120.697C191.711 103.995 174.429 96.7797 160.368 90.9097C154.822 88.5947 149.584 86.4077 145.507 83.9487C145.477 83.9307 145.446 83.9117 145.415 83.8947C130.641 75.1957 119.362 67.5987 105.368 54.4447C103.194 52.4377 100.679 49.5227 98.015 46.4357C90.376 37.5827 81.129 26.8677 68.371 23.3157C66.594 20.1857 63.818 16.9857 59.483 14.5387C59.473 14.5177 59.462 14.4967 59.452 14.4757C59.136 13.8437 58.785 13.2047 58.418 12.5867C58.392 12.5437 58.316 12.4147 58.29 12.3717C57.957 11.8237 57.595 11.2707 57.211 10.7277C57.155 10.6447 57.073 10.5276 57.026 10.4637C56.639 9.92764 56.22 9.39166 55.768 8.85165C55.716 8.78867 55.657 8.71765 55.614 8.66766C55.128 8.09967 54.61 7.54266 54.128 7.06665C54.101 7.03863 54.073 7.01166 54.045 6.98364C45.997 -0.943359 34.779 -2.21936 24.771 3.65463C16.024 8.79263 9.50001 18.7366 8.53501 28.3996C8.53201 28.4336 8.52801 28.4706 8.52501 28.5086C8.39701 29.8446 8.37501 31.1776 8.45801 32.4726C8.46401 32.5706 8.47101 32.6686 8.48001 32.7676C8.52501 33.3557 8.59301 33.9456 8.66901 34.4417C8.66901 34.4417 8.728 34.8317 8.728 34.8317C8.84501 35.5267 8.98201 36.1757 9.13501 36.7597C9.17101 36.9027 9.21101 37.0457 9.25401 37.1897C9.39801 37.7047 9.56401 38.2257 9.743 38.7217C9.79601 38.8707 9.85 39.0187 9.91 39.1757C9.464 39.5797 9.027 40.0007 8.599 40.4377C8.589 40.4487 8.52 40.5197 8.51 40.5297C7.306 41.7787 6.21 43.1437 5.265 44.5717C5.173 44.7097 5.083 44.8497 4.948 45.0637C4.582 45.6407 4.232 46.2377 3.928 46.8017C3.827 46.9797 3.728 47.1597 3.621 47.3667C3.288 48.0167 2.963 48.7147 2.664 49.4257C2.532 49.7377 2.408 50.0577 2.286 50.3787C2.286 50.3787 2.239 50.5027 2.239 50.5027C2.094 50.8867 1.956 51.2757 1.801 51.7387C1.666 52.1407 1.534 52.5427 1.412 52.9677C1.369 53.1157 1.329 53.2677 1.288 53.4297C1.02 54.4077 0.787003 55.4497 0.594002 56.5337C0.551003 56.7747 0.510002 57.0177 0.476002 57.2317C0.386002 57.8037 0.304001 58.3807 0.243 58.9367C0.230999 59.0457 0.220001 59.1567 0.209999 59.2707C0.104 60.3167 0.0379982 61.4267 0.0139999 62.5667C0.00699997 62.9117 0 63.2567 0 63.6487C0.0019989 64.1107 0.00799942 64.5747 0.0229988 65.0247C0.0529976 65.9597 0.100998 66.8077 0.168999 67.6167C0.173 67.6657 0.177998 67.7147 0.182999 67.7637C0.306 69.0017 0.453999 70.2267 0.625 71.4057C1.206 75.4107 2.091 79.1787 3.332 82.9267C7.417 95.2597 14.758 105.417 27.734 120.944C37.8659 133.709 68.0569 160.059 89.2749 170.537C89.2749 170.537 89.2749 170.537 89.2749 170.537Z" fill="#FFFFFF" />
    <g transform="translate(9.981 10.017)">
      <path d="M165.942 108.862C167.331 75.5446 132.504 72.0087 113.284 60.4167C97.2568 50.9807 85.7248 43.0427 71.5268 29.6967C60.8868 19.8747 48.5688 -2.21735 29.7458 0.180664C12.5828 2.32565 -1.46621 13.3017 0.122787 34.4447C1.82178 53.5377 9.46679 64.0557 26.9488 83.2207C37.1248 95.0177 71.3318 121.345 91.9458 127.297C97.9988 129.201 104.146 131.298 110.136 132.604C115.389 133.758 122.556 134.621 127.859 134.722C146.833 135.199 165.27 131.055 165.942 108.862C165.942 108.862 165.942 108.862 165.942 108.862Z" fill="#FF9831" transform="translate(17.074 22.08)" />
      <g transform="translate(8.418 0)">
        <path d="M170.179 116.544C111.649 103.836 58.6084 63.0525 32.1044 8.93152C28.4184 1.55151 20.3494 -2.97147 11.4334 2.26251C3.83041 6.72852 -2.9236 18.1705 1.3054 26.6435C32.3504 89.8375 93.6744 138.323 162.453 153.205C171.085 155.137 180.645 148.807 181.999 138.58C183.312 128.694 178.678 118.445 170.179 116.544C170.179 116.544 170.179 116.544 170.179 116.544Z" fill="#E24268" />
        <path d="M5.5573 0.00454712C0.842293 -0.196442 -0.163704 6.29654 0.0202942 10.3955C0.328293 18.1455 5.9453 25.8225 10.0543 31.9675C30.5823 62.8515 60.0813 87.0195 92.3003 105.991C108.667 115.681 126.004 126.458 144.885 130C149.162 130.811 154.538 131.654 158.421 129.312C158.437 129.302 158.453 129.292 158.47 129.283C161.27 127.566 161.749 123.551 159.727 120.876C157.737 118.246 155.098 116.34 151.867 115.617C93.3373 102.909 40.2963 62.1255 13.7923 8.00455C11.9733 4.34854 9.0833 1.42654 5.5573 0.00454712C5.5573 0.00454712 5.5573 0.00454712 5.5573 0.00454712Z" fill="#ED5F7A" transform="translate(18.313 0.929)" />
        <path d="M176.003 134.531C167.666 139.582 156.964 139.394 147.287 137.409C126.821 133.261 107.146 122.262 89.2825 111.429C80.6145 106.193 72.2735 100.359 64.7825 93.531C56.8145 86.267 50.2015 77.875 43.6485 69.509C36.5025 60.386 29.6385 51.161 23.1105 41.801C18.2975 34.902 13.2075 28.073 9.55451 20.527C6.59651 14.448 4.18351 6.504 5.38251 0C0.871513 5.435 -1.71449 13.041 1.30051 19.079C32.3455 82.273 93.6695 130.758 162.449 145.64C171.081 147.572 180.641 141.242 181.995 131.015C182.088 130.343 182.146 129.668 182.183 128.994C180.458 131.14 178.459 133.047 176.003 134.531C176.003 134.531 176.003 134.531 176.003 134.531Z" fill="#D13754" transform="translate(0.005 7.566)" />
        <path d="M5.5582 9.39417C5.5392 9.34818 5.5052 9.31216 5.4742 9.27316C5.7132 9.11118 5.9362 8.92517 6.1172 8.69415C6.3912 8.34415 6.55521 7.93716 6.65021 7.49915C6.67821 7.37015 6.6062 7.18616 6.52721 7.08615C6.44121 6.97815 6.29321 6.88516 6.1562 6.87314C6.01421 6.86115 5.8642 6.89014 5.7552 6.98514C5.6412 7.08713 5.59221 7.20312 5.5592 7.35413C5.56821 7.31512 5.57721 7.27512 5.5862 7.23712C5.54419 7.41412 5.4762 7.58011 5.3972 7.74011C5.3922 7.74911 5.38521 7.7561 5.3802 7.7641C5.63321 5.2431 5.1862 2.64609 4.1142 0.326111C3.81219 -0.327881 2.8212 0.098114 3.12419 0.757111C3.97119 2.59512 4.38519 4.58411 4.3472 6.57312C3.8042 5.29211 2.90919 4.15613 1.77519 3.38211C1.52719 3.2131 1.1962 3.22812 1.01219 3.47711C0.846191 3.70212 0.87619 4.0921 1.12619 4.26312C2.66119 5.31113 3.65118 7.01212 3.81219 8.87213C3.81419 8.89914 3.83119 8.92114 3.8382 8.94614C3.8282 8.95615 3.8132 8.97012 3.8132 8.97012C3.7532 9.03012 3.69121 9.08713 3.6282 9.14413C3.5032 9.25714 3.37221 9.36612 3.2372 9.46814C3.0952 9.57614 2.9462 9.67615 2.7972 9.77414C2.72719 9.81915 2.79019 9.78015 2.7482 9.80414C2.71519 9.82413 2.6832 9.84213 2.65019 9.86115C2.56819 9.90714 2.4852 9.95215 2.4012 9.99414C2.09019 10.1501 1.7662 10.2821 1.43221 10.3851C1.4032 10.3941 1.37421 10.4021 1.34621 10.4101C1.34021 10.4111 1.27821 10.4281 1.26921 10.4311C1.18622 10.4521 1.10321 10.4711 1.02022 10.4891C0.83522 10.5271 0.647217 10.5561 0.459213 10.5791C0.164215 10.6141 -0.0417938 10.9111 0.00721741 11.2081C0.0572205 11.5131 0.349213 11.7271 0.646225 11.6911C1.65422 11.5731 2.58823 11.2051 3.42223 10.6751C3.17422 12.4211 2.78423 14.1331 2.22923 15.7941C2.00323 16.4691 3.04823 16.9111 3.27223 16.2341C3.92422 14.2711 4.37323 12.2331 4.61523 10.1621C4.63223 10.0172 4.59224 9.90213 4.52924 9.80713C4.53624 9.79913 4.54424 9.79312 4.55124 9.78613C4.55624 9.80115 4.55424 9.81415 4.56024 9.82913C4.65924 10.0721 4.75024 10.3181 4.82924 10.5681C4.83723 10.5971 4.86824 10.6992 4.87125 10.7131C4.88725 10.7681 4.90125 10.8221 4.91525 10.8781C4.95125 11.0161 4.98425 11.1541 5.01326 11.2932C5.06825 11.5532 5.11127 11.8141 5.14326 12.0782C5.15927 12.2092 5.17227 12.3412 5.18227 12.4731C5.18727 12.5381 5.19127 12.6051 5.19527 12.6711C5.18927 12.5671 5.19827 12.7831 5.19926 12.8031C5.20627 13.0951 5.37926 13.4041 5.70126 13.4311C5.97327 13.4541 6.30927 13.2601 6.30127 12.9471C6.2692 11.7272 6.02721 10.5332 5.5582 9.39417C5.5582 9.39417 5.5582 9.39417 5.5582 9.39417Z" fill="#982D9B" transform="translate(174.808 129.106)" />
      </g>
      <g transform="translate(26.085 9.985)">
        <path d="M149.403 114.37C144.294 112.508 143.324 103.97 140.098 99.9406C135.81 94.6056 129.172 93.7065 123.021 95.5446C119.623 96.5706 115.411 100.319 111.911 98.7226C107.797 96.8406 107.088 89.9216 105.46 86.0516C102.768 79.7026 97.7031 75.6766 91.1352 74.8576C87.8082 74.4436 84.5022 74.8816 81.3202 76.0796C74.8182 78.5066 74.2192 72.2016 72.9622 67.0775C71.2472 60.2695 67.7612 52.8185 60.3542 51.9796C57.6302 51.6725 52.8742 54.1486 50.4852 52.9915C47.2232 51.4106 48.4691 44.3175 48.2612 41.3676C47.6902 33.9695 43.1752 28.0666 36.0142 27.2786C32.1542 26.8626 26.5232 29.3426 25.6112 23.8926C24.9162 19.6326 26.1171 15.3496 24.8512 11.1886C22.0422 1.86057 12.4322 0.512573 4.10615 0.00958252C-1.31886 -0.331421 -1.40285 8.54758 4.06015 8.84558C8.64715 9.08957 14.7242 9.11658 16.6691 14.1136C18.0761 17.7066 16.6451 22.4216 17.3732 26.3236C18.6182 33.0036 23.3202 36.5266 29.7541 36.3466C34.1041 36.2346 38.5771 35.5176 39.7262 41.0856C40.4611 44.6006 39.6021 48.3856 40.3741 51.9706C41.8322 58.7566 46.9931 62.7606 53.6392 61.8046C57.8172 61.2086 60.9752 59.9816 63.2792 64.7346C65.1412 68.5516 65.2332 73.1566 66.7772 77.1756C69.4472 84.1406 75.3082 87.9746 82.2222 85.3336C85.7092 84.0046 89.0632 82.8236 92.7482 84.3516C97.1042 86.1486 98.0372 90.7766 99.4521 94.9646C101.645 101.539 106.097 108.547 113.73 108.328C120.679 108.14 129.875 98.3656 134.823 107.532C137.941 113.21 139.203 120.033 146.005 122.525C151.376 124.458 154.682 116.265 149.403 114.37C149.403 114.37 149.403 114.37 149.403 114.37Z" fill="#FFCD5C" />
        <path d="M145.669 116.047C143.09 114.688 141.373 111.968 140.106 109.417C137.839 104.878 135.367 99.346 130.228 97.891C127.635 97.156 124.84 97.47 122.439 98.683C121.083 99.369 119.914 100.373 118.563 101.076C117.267 101.749 115.925 102.211 114.474 102.425C111.578 102.853 108.558 102.027 106.261 100.062C104.113 98.226 102.865 95.565 101.825 92.991C100.755 90.342 99.851 87.637 98.85 84.981C97.862 82.361 96.551 79.835 94.368 78.127C94.29 78.066 94.22 77.997 94.149 77.928C91.59 76.375 88.846 76.472 86.008 77.159C83.497 77.767 81.198 79.072 78.661 79.609C76.305 80.109 73.879 79.797 71.975 78.119C70.049 76.423 68.604 73.96 67.588 71.604C66.558 69.219 65.88 66.676 65.483 64.114C65.106 61.676 65.13 59.227 63.953 57.031C62.972 55.201 61.305 53.924 59.273 53.802C57.527 53.698 55.73 54.39 54.021 54.739C50.207 55.524 45.565 55.537 43.624 51.437C41.793 48.751 40.89 45.236 41.153 41.991C41.286 40.346 41.72 38.728 41.796 37.083C41.869 35.493 41.36 34.097 40.493 32.847C39.115 30.861 36.927 29.579 34.661 28.995C33.484 28.693 32.252 28.519 31.027 28.539C29.66 28.56 28.33 28.916 26.964 28.996C23.867 29.181 20.472 27.912 19.241 24.71C18.235 22.088 19.235 19.155 19.285 16.44C19.379 10.923 17.57 5.17099 12.565 2.84702C11.244 2.233 9.782 2.06403 8.31599 2.177C6.83499 2.29102 5.38999 2.77499 3.896 2.66C1.977 2.51199 0.785996 1.44901 0 0C0.193001 2.02802 1.537 3.979 4.024 4.104C8.611 4.34799 14.688 4.375 16.633 9.37201C18.04 12.965 16.609 17.68 17.337 21.582C18.582 28.262 23.284 31.785 29.718 31.605C34.068 31.493 38.541 30.776 39.69 36.344C40.425 39.859 39.566 43.644 40.338 47.229C41.796 54.015 46.957 58.019 53.603 57.063C57.781 56.467 60.939 55.24 63.243 59.993C65.105 63.81 65.197 68.415 66.741 72.434C69.411 79.399 75.272 83.233 82.186 80.592C85.673 79.263 89.027 78.082 92.712 79.61C97.068 81.407 98.001 86.035 99.416 90.223C101.609 96.797 106.061 103.805 113.694 103.586C120.643 103.398 129.839 93.624 134.787 102.79C137.905 108.468 139.167 115.291 145.969 117.783C148.528 118.714 150.622 117.311 151.53 115.401C149.894 116.706 147.816 117.178 145.669 116.047C145.669 116.047 145.669 116.047 145.669 116.047Z" fill="#FCB83F" transform="translate(0.039 4.74)" />
      </g>
      <g transform="translate(0 30.677)">
        <g>
          <path d="M160.915 117.997C162.634 89.8797 127.418 81.3497 108.562 68.0577C92.7127 57.1697 81.4017 48.2377 67.5047 33.9037C57.1177 23.3647 44.8477 1.1767 27.2887 0.087677C11.2787 -0.925324 -1.48529 6.78369 0.139713 26.0867C1.86471 43.5197 8.97471 54.1767 25.4977 73.9407C35.0737 86.0657 67.5977 114.439 87.6037 122.645C93.4637 125.213 99.4307 127.949 105.274 129.968C110.397 131.75 117.42 133.557 122.647 134.427C141.298 137.633 159.903 136.753 160.915 117.997C160.915 117.997 160.915 117.997 160.915 117.997Z" fill="#FF9831" transform="translate(0.012 0)" />
          <path d="M130.784 123.7C108.743 119.527 88.4704 107.216 70.9793 93.548C58.3943 83.752 46.0403 73.396 35.3103 61.859C19.4033 45.158 2.70234 19.088 15.0213 0C5.40434 2.88501 -1.08366 10.818 0.150337 24.779C1.87534 42.212 8.98634 52.869 25.5083 72.633C35.0843 84.758 67.6083 113.13 87.6143 121.337C93.4743 123.905 99.4413 126.641 105.284 128.66C110.407 130.442 117.43 132.249 122.657 133.119C140.232 136.138 157.851 135.533 160.559 119.678C152.604 124.565 142.399 125.907 130.784 123.7C130.784 123.7 130.784 123.7 130.784 123.7Z" fill="#F78823" transform="translate(0 1.308)" />
        </g>
        <g transform="translate(17.586 12.776)">
          <path d="M2.17265 1.92313C2.30565 1.40213 2.45665 0.760132 1.96466 0.291138C1.88466 0.215149 1.78265 0.157135 1.67566 0.123138C1.46165 -0.0268555 1.18967 -0.046875 0.987656 0.102142C0.195648 0.692139 -0.15834 1.71915 0.0666504 2.70813C0.141647 3.03613 0.292648 3.39212 0.654648 3.53812C0.996643 3.67612 1.36765 3.57413 1.60065 3.35013C1.97966 2.98315 2.04666 2.41513 2.17265 1.92313C2.17265 1.92313 2.17265 1.92313 2.17265 1.92313Z" fill="#F78823" transform="translate(82.133 80.901)" />
          <path d="M2.11342 1.89716C2.25342 1.37814 2.41342 0.740143 1.94542 0.281158C1.86842 0.207153 1.77142 0.150146 1.66843 0.118164C1.46342 -0.027832 1.19943 -0.0458374 1.00142 0.105164C0.220413 0.698151 -0.145584 1.72015 0.053421 2.69815C0.118423 3.02316 0.258423 3.37415 0.607422 3.51514C0.937424 3.64813 1.29942 3.54315 1.52942 3.31815C1.90442 2.94916 1.98143 2.38516 2.11342 1.89716C2.11342 1.89716 2.11342 1.89716 2.11342 1.89716Z" fill="#F78823" transform="translate(89.323 62.313)" />
          <path d="M2.14214 1.98709C2.36613 1.49908 2.62814 0.897095 2.25014 0.377106C2.18814 0.292114 2.10213 0.222107 2.00714 0.17511C1.83214 0.00109863 1.57814 -0.0558777 1.36014 0.0621033C0.500137 0.5271 -0.0278625 1.4761 0.00113678 2.46512C0.0111389 2.79312 0.0861359 3.15811 0.403137 3.34912C0.701134 3.52911 1.07114 3.48111 1.33414 3.29413C1.76113 2.98911 1.93114 2.44708 2.14214 1.98709C2.14214 1.98709 2.14214 1.98709 2.14214 1.98709Z" fill="#F78823" transform="translate(27.14 8.795)" />
          <path d="M1.99641 1.564C1.90741 1.013 1.78741 0.338989 1.18641 0.0740051C1.08741 0.0310059 0.978409 0.0130005 0.873405 0.0209961C0.632408 -0.0429993 0.391403 0.0400085 0.278404 0.259003C-0.168594 1.12302 -0.0675964 2.245 0.511406 3.112C0.703407 3.39999 0.970406 3.685 1.3364 3.689C1.6814 3.69299 1.95641 3.45499 2.0654 3.151C2.24441 2.65399 2.08041 2.08401 1.99641 1.564C1.99641 1.564 1.99641 1.564 1.99641 1.564Z" fill="#F78823" transform="translate(11.78 10.627)" />
          <path d="M2.15284 1.9675C2.33284 1.46149 2.54284 0.837494 2.10684 0.338501C2.03584 0.2565 1.94084 0.192505 1.84084 0.150513C1.64584 -0.0134888 1.38184 -0.0534973 1.17085 0.0805054C0.339844 0.606506 -0.104156 1.5975 0.0208435 2.5925C0.0628433 2.92249 0.174843 3.28448 0.515846 3.45651C0.836845 3.6185 1.20985 3.54453 1.45785 3.33951C1.86184 3.0015 1.98284 2.44449 2.15284 1.9675C2.15284 1.9675 2.15284 1.9675 2.15284 1.9675Z" fill="#F78823" transform="translate(50.632 46.175)" />
          <path d="M2.17082 1.99997C2.37182 1.50098 2.60582 0.884979 2.18882 0.366974C2.12082 0.282959 2.02882 0.213959 1.92882 0.167969C1.74081 -0.00402832 1.47681 -0.0560303 1.26082 0.0689697C0.407822 0.55896 -0.0761795 1.53098 0.00981903 2.53198C0.0388184 2.86398 0.137817 3.23199 0.471817 3.41797C0.786819 3.59296 1.16282 3.53598 1.41982 3.34097C1.83982 3.02194 1.98282 2.46997 2.17082 1.99997C2.17082 1.99997 2.17082 1.99997 2.17082 1.99997Z" fill="#F78823" transform="translate(32.113 35.707)" />
          <path d="M2.11127 1.06003C1.79427 0.583038 1.39726 0.00402832 0.740265 3.05176e-05C0.63327 -0.000976562 0.527267 0.0260315 0.436264 0.0750427C0.191269 0.113037 0.00926208 0.287048 0.00126648 0.538055C-0.0307312 1.52206 0.543274 2.52707 1.43826 3.10104C1.73526 3.29004 2.09827 3.44803 2.42926 3.30405C2.74126 3.16806 2.88725 2.83606 2.85526 2.50903C2.80327 1.97601 2.41026 1.51102 2.11127 1.06003C2.11127 1.06003 2.11127 1.06003 2.11127 1.06003Z" fill="#F78823" transform="translate(97.22 75.323)" />
          <path d="M2.0059 1.35922C1.8139 0.824219 1.56789 0.172211 0.934898 0.0172119C0.831902 -0.00778198 0.721901 -0.00479126 0.622902 0.0212097C0.3769 0.0012207 0.159904 0.128204 0.0929031 0.369202C-0.172096 1.31619 0.142906 2.42221 0.870903 3.18219C1.1119 3.4342 1.4259 3.6702 1.7789 3.60718C2.1119 3.54617 2.3319 3.25818 2.3799 2.93417C2.4549 2.40521 2.1869 1.86322 2.0059 1.35922C2.0059 1.35922 2.0059 1.35922 2.0059 1.35922Z" fill="#F78823" transform="translate(0 1.962)" />
          <path d="M2.04802 1.12598C1.77002 0.635986 1.42102 0.039978 0.777023 0.000976562C0.672028 -0.0050354 0.566025 0.0169678 0.473022 0.0609741C0.229019 0.085968 0.0390167 0.248962 0.0130157 0.496979C-0.0879822 1.47397 0.406021 2.50198 1.24402 3.11899C1.52202 3.32397 1.86801 3.49899 2.20302 3.37299C2.51901 3.25497 2.68501 2.93298 2.67702 2.60599C2.66302 2.07199 2.31003 1.58899 2.04802 1.12598C2.04802 1.12598 2.04802 1.12598 2.04802 1.12598Z" fill="#F78823" transform="translate(74.323 50.769)" />
          <path d="M2.17169 0.961487C1.81169 0.508484 1.36269 -0.0415039 0.700699 0.00247192C0.592697 0.00946045 0.487701 0.0444641 0.399704 0.100464C0.155701 0.157471 -0.0122986 0.343475 0.000701904 0.594452C0.050705 1.58044 0.714706 2.54245 1.6647 3.05045C1.97971 3.21844 2.35971 3.34946 2.6817 3.18146C2.9847 3.02347 3.1037 2.67944 3.04471 2.35645C2.94569 1.8255 2.50969 1.3895 2.17169 0.961487C2.17169 0.961487 2.17169 0.961487 2.17169 0.961487Z" fill="#F78823" transform="translate(131.353 98.105)" />
          <path d="M2.15068 1.82379C2.21867 1.28879 2.28868 0.629791 1.74268 0.219788C1.65367 0.152802 1.54567 0.106781 1.43567 0.0838013C1.20467 -0.0411987 0.931671 -0.0302124 0.750671 0.142792C0.0386658 0.821777 -0.186325 1.88779 0.159668 2.84879C0.274673 3.16779 0.467667 3.50479 0.845673 3.61078C1.20168 3.70978 1.55768 3.56577 1.75967 3.31479C2.09068 2.90381 2.08669 2.3288 2.15068 1.82379C2.15068 1.82379 2.15068 1.82379 2.15068 1.82379Z" fill="#F78823" transform="translate(115.911 98.91)" />
          <path d="M2.01466 1.23416C1.78165 0.722168 1.48566 0.0991516 0.847656 0.00616455C0.74366 -0.0088501 0.635658 0.00415039 0.539658 0.0391541C0.295654 0.0431519 0.0916595 0.189148 0.0446548 0.434143C-0.140343 1.39716 0.260658 2.46414 1.04066 3.14813C1.29966 3.37512 1.62766 3.58014 1.97266 3.48312C2.29665 3.39212 2.49065 3.08612 2.51166 2.76013C2.54366 2.22818 2.23466 1.71716 2.01466 1.23416C2.01466 1.23416 2.01466 1.23416 2.01466 1.23416Z" fill="#F78823" transform="translate(38.734 25.461)" />
          <path d="M2.10335 1.20978C1.82535 0.698792 1.47435 0.0777893 0.810349 0.00378418C0.702347 -0.00820923 0.592346 0.00878906 0.496346 0.0477905C0.246346 0.060791 0.0463486 0.214783 0.0173492 0.464783C-0.100647 1.44577 0.39135 2.51279 1.24635 3.18079C1.52934 3.40277 1.88335 3.59778 2.23035 3.4888C2.55735 3.3858 2.73335 3.06979 2.73035 2.7388C2.72235 2.19977 2.36635 1.69177 2.10335 1.20978C2.10335 1.20978 2.10335 1.20978 2.10335 1.20978Z" fill="#F78823" transform="translate(48.313 59.885)" />
          <path d="M2.04861 1.32922C1.82461 0.797211 1.54261 0.148224 0.893608 0.0132141C0.787605 -0.00878906 0.677605 -0.0027771 0.577606 0.0272217C0.328606 0.0162354 0.116608 0.151215 0.0606079 0.395233C-0.156395 1.35825 0.221611 2.46222 0.997604 3.20422C1.25561 3.45023 1.5846 3.67822 1.93861 3.60123C2.27261 3.53021 2.47961 3.23123 2.50961 2.90323C2.55961 2.36823 2.25961 1.83124 2.04861 1.32922C2.04861 1.32922 2.04861 1.32922 2.04861 1.32922Z" fill="#F78823" transform="translate(9.802 24.901)" />
          <path d="M2.48082 1.96579C3.00182 1.75778 3.63483 1.4888 3.65282 0.865784C3.65582 0.763794 3.62782 0.657776 3.57681 0.561798C3.54082 0.322784 3.35782 0.117798 3.08981 0.0628052C2.03281 -0.152191 0.940811 0.196808 0.29982 0.927795C0.0878143 1.17081 -0.0931854 1.48279 0.0528259 1.8248C0.189819 2.14679 0.54483 2.35181 0.897827 2.38779C1.47581 2.4458 1.98882 2.16281 2.48082 1.96579C2.48082 1.96579 2.48082 1.96579 2.48082 1.96579Z" fill="#F78823" transform="translate(97.83 90.932)" />
          <path d="M2.42477 1.95691C2.92877 1.7269 3.53978 1.43192 3.54477 0.810913C3.54578 0.7099 3.51677 0.605927 3.46477 0.512909C3.42477 0.276917 3.24277 0.079895 2.97977 0.0379028C1.94577 -0.129089 0.888763 0.2659 0.278763 1.0199C0.076767 1.2709 -0.0922394 1.5889 0.0567627 1.92191C0.196762 2.2359 0.545761 2.4249 0.890762 2.4429C1.45576 2.47592 1.94876 2.17493 2.42477 1.95691C2.42477 1.95691 2.42477 1.95691 2.42477 1.95691Z" fill="#F78823" transform="translate(120.488 83.035)" />
          <path d="M2.12892 1.84033C2.41092 1.52032 2.74593 1.11734 2.45493 0.563324C2.40692 0.473328 2.33493 0.386322 2.25093 0.315338C2.10693 0.114349 1.87292 -0.0196533 1.64693 0.00234985C0.761932 0.0883484 0.125931 0.682343 0.0139313 1.49734C-0.0230713 1.76834 -0.0020752 2.09033 0.273926 2.35434C0.53392 2.60233 0.894928 2.69034 1.17192 2.62735C1.62393 2.52734 1.86392 2.14334 2.12892 1.84033C2.12892 1.84033 2.12892 1.84033 2.12892 1.84033Z" fill="#F78823" transform="translate(109.164 85.55)" />
          <path d="M2.05247 1.87146C2.37547 1.59344 2.76247 1.24246 2.56847 0.659454C2.53648 0.564453 2.48048 0.470459 2.40948 0.388458C2.30247 0.171448 2.09547 0.00946045 1.87347 0.00146484C1.00247 -0.0305481 0.293472 0.467468 0.0574722 1.25348C-0.0205307 1.51447 -0.0505295 1.83447 0.175468 2.12949C0.387466 2.40848 0.724472 2.54248 1.00247 2.51749C1.45647 2.47849 1.74747 2.13446 2.05247 1.87146C2.05247 1.87146 2.05247 1.87146 2.05247 1.87146Z" fill="#F78823" transform="translate(50.496 35.91)" />
          <path d="M2.11349 1.86618C2.4175 1.56619 2.7795 1.18817 2.52849 0.61618C2.48749 0.522186 2.42249 0.430176 2.34248 0.354187C2.21448 0.143188 1.98848 -0.00579834 1.76349 0.000183105C0.874481 0.025177 0.199493 0.573181 0.0304871 1.37817C-0.0255127 1.64517 -0.0275116 1.96918 0.228485 2.25116C0.469482 2.51715 0.823486 2.62915 1.10349 2.58615C1.56248 2.51517 1.82748 2.15018 2.11349 1.86618C2.11349 1.86618 2.11349 1.86618 2.11349 1.86618Z" fill="#F78823" transform="translate(76.812 68.375)" />
          <path d="M2.0004 1.88211C2.3474 1.63412 2.7644 1.32111 2.6314 0.727112C2.6104 0.630127 2.5644 0.532104 2.5034 0.446106C2.4204 0.2211 2.2324 0.0440979 2.0154 0.0161133C1.16141 -0.0908813 0.411407 0.342102 0.0984039 1.09912C-0.00559235 1.35013 -0.0675964 1.66412 0.124405 1.97614C0.305405 2.27014 0.623405 2.43213 0.899406 2.43213C1.3524 2.4321 1.67441 2.11612 2.0004 1.88211C2.0004 1.88211 2.0004 1.88211 2.0004 1.88211Z" fill="#F78823" transform="translate(17.799 0)" />
          <path d="M2.04978 1.89459C2.38878 1.6366 2.79778 1.31058 2.63278 0.713593C2.60578 0.616608 2.55378 0.518585 2.48779 0.432587C2.39178 0.207581 2.19279 0.0325928 1.97079 0.0105896C1.09679 -0.076416 0.357788 0.378601 0.0787888 1.1506C-0.0142136 1.40662 -0.0612106 1.72562 0.148788 2.03659C0.347786 2.32858 0.678787 2.48459 0.959785 2.4776C1.41879 2.4646 1.72978 2.1376 2.04978 1.89459C2.04978 1.89459 2.04978 1.89459 2.04978 1.89459Z" fill="#F78823" transform="translate(23.666 22.422)" />
          <path d="M2.10263 1.87701C2.41563 1.58701 2.79063 1.22202 2.56062 0.642029C2.52263 0.546021 2.45963 0.454041 2.38463 0.374023C2.26363 0.15802 2.04463 0.00201416 1.81863 3.05176e-05C0.930634 -0.00497437 0.236633 0.52002 0.0406342 1.31802C-0.0243683 1.58304 -0.0383606 1.90604 0.207642 2.19601C0.438644 2.47 0.788635 2.59402 1.07065 2.561C1.52963 2.50702 1.80663 2.15103 2.10263 1.87701C2.10263 1.87701 2.10263 1.87701 2.10263 1.87701Z" fill="#F78823" transform="translate(61.656 58.926)" />
        </g>
        <g transform="translate(18.156 12.492)">
          <path d="M2.17104 1.92215C2.30403 1.40115 2.45503 0.758148 1.96304 0.291138C1.88205 0.214142 1.78104 0.156128 1.67404 0.123138C1.46004 -0.0268555 1.18805 -0.046875 0.987045 0.102142C0.196045 0.693146 -0.158951 1.72113 0.0670471 2.70813C0.142044 3.03613 0.292053 3.39212 0.655045 3.53812C0.99704 3.67612 1.36804 3.57312 1.60005 3.34912C1.97804 2.98215 2.04504 2.41415 2.17104 1.92215C2.17104 1.92215 2.17104 1.92215 2.17104 1.92215Z" fill="#FFCD5C" transform="translate(82.071 80.807)" />
          <path d="M2.11243 1.89563C2.25243 1.37662 2.41243 0.738617 1.94443 0.28064C1.86743 0.206635 1.77043 0.149628 1.66743 0.117645C1.46243 -0.0283508 1.19844 -0.0453491 1.00043 0.105652C0.220428 0.699646 -0.145569 1.72165 0.053421 2.69965C0.118423 3.02365 0.258423 3.37463 0.607422 3.51465C0.936417 3.64764 1.29842 3.54266 1.52843 3.31766C1.90242 2.94861 1.98042 2.38461 2.11243 1.89563C2.11243 1.89563 2.11243 1.89563 2.11243 1.89563Z" fill="#FFCD5C" transform="translate(89.253 62.216)" />
          <path d="M2.14014 1.98639C2.36314 1.49838 2.62614 0.896393 2.24814 0.376404C2.18614 0.291412 2.10114 0.221405 2.00614 0.174408C1.83114 0.000396729 1.57714 -0.055603 1.35914 0.0624084C0.500137 0.528412 -0.0278625 1.47742 0.00113678 2.46542C0.0111389 2.79343 0.0861359 3.15842 0.403137 3.34943C0.701134 3.52841 1.07114 3.48044 1.33314 3.29343C1.76014 2.98837 1.93014 2.44638 2.14014 1.98639C2.14014 1.98639 2.14014 1.98639 2.14014 1.98639Z" fill="#FFCD5C" transform="translate(27.121 8.78)" />
          <path d="M1.9954 1.56161C1.9064 1.01062 1.7874 0.337616 1.1854 0.0736084C1.0874 0.0306091 0.977402 0.0126038 0.873405 0.0205994C0.632408 -0.0423889 0.392403 0.0396118 0.278404 0.259613C-0.168594 1.12363 -0.0675964 2.24561 0.511406 3.1116C0.703407 3.39859 0.970406 3.68359 1.3354 3.68661C1.67941 3.69061 1.95541 3.45261 2.0644 3.14862C2.2434 2.65161 2.0794 2.08063 1.9954 1.56161C1.9954 1.56161 1.9954 1.56161 1.9954 1.56161Z" fill="#FFCD5C" transform="translate(11.772 10.629)" />
          <path d="M2.15154 1.96652C2.33154 1.46051 2.54054 0.83551 2.10555 0.337524C2.03455 0.256531 1.94054 0.191528 1.83955 0.150513C1.64455 -0.0134888 1.38055 -0.0534973 1.17055 0.0805054C0.340546 0.606506 -0.103455 1.59851 0.020546 2.5925C0.0625458 2.92249 0.174545 3.28448 0.515549 3.45651C0.836548 3.61752 1.20855 3.54453 1.45655 3.3385C1.86154 3.00153 1.98154 2.44351 2.15154 1.96652C2.15154 1.96652 2.15154 1.96652 2.15154 1.96652Z" fill="#FFCD5C" transform="translate(50.593 46.121)" />
          <path d="M2.16982 1.99896C2.36982 1.49997 2.60382 0.883972 2.18682 0.366974C2.11882 0.282959 2.02682 0.213959 1.92782 0.167969C1.73882 -0.00402832 1.47581 -0.0560303 1.25982 0.0689697C0.407822 0.559967 -0.0761795 1.53198 0.00981903 2.53296C0.0388184 2.86496 0.137817 3.23196 0.471817 3.41797C0.786819 3.59296 1.16282 3.53497 1.41882 3.33997C1.83882 3.02197 1.98083 2.46896 2.16982 1.99896C2.16982 1.99896 2.16982 1.99896 2.16982 1.99896Z" fill="#FFCD5C" transform="translate(32.089 35.676)" />
          <path d="M2.10927 1.05902C1.79227 0.582031 1.39627 0.00402832 0.740265 3.05176e-05C0.63327 -0.000976562 0.527267 0.0270386 0.436264 0.0760193C0.191269 0.114014 0.0102692 0.288025 0.00126648 0.539032C-0.0307312 1.52304 0.543274 2.52704 1.43727 3.09903C1.73328 3.28903 2.09727 3.44702 2.42728 3.30203C2.73927 3.16605 2.88428 2.83304 2.85228 2.50702C2.80127 1.97302 2.40828 1.50803 2.10927 1.05902C2.10927 1.05902 2.10927 1.05902 2.10927 1.05902Z" fill="#FFCD5C" transform="translate(97.144 75.217)" />
          <path d="M2.00391 1.3562C1.81191 0.822205 1.56591 0.170197 0.933914 0.0172119C0.830917 -0.00778198 0.721916 -0.00479126 0.621918 0.0212097C0.376915 0.00219727 0.15992 0.129211 0.0929184 0.370209C-0.172081 1.3172 0.142921 2.42221 0.869919 3.18121C1.11092 3.43323 1.42392 3.66922 1.77792 3.60422C2.11092 3.54422 2.33092 3.25522 2.37791 2.93121C2.45391 2.40121 2.18591 1.8602 2.00391 1.3562C2.00391 1.3562 2.00391 1.3562 2.00391 1.3562Z" fill="#FFCD5C" transform="translate(0 1.982)" />
          <path d="M2.04602 1.12497C1.76903 0.634979 1.42001 0.039978 0.776016 0.000976562C0.671021 -0.0050354 0.565018 0.0169678 0.472015 0.0609741C0.228012 0.0849609 0.0380096 0.248962 0.0130157 0.496979C-0.0879822 1.47299 0.406021 2.50098 1.24301 3.11597C1.52101 3.31998 1.867 3.49496 2.201 3.36896C2.51601 3.25095 2.683 2.92896 2.675 2.60196C2.66103 2.06998 2.30801 1.58698 2.04602 1.12497C2.04602 1.12497 2.04602 1.12497 2.04602 1.12497Z" fill="#FFCD5C" transform="translate(74.266 50.691)" />
          <path d="M2.16971 0.96048C1.81071 0.507477 1.36171 -0.0415344 0.699707 0.00247192C0.591705 0.0104675 0.487701 0.0454712 0.399704 0.101471C0.155701 0.158478 -0.0122986 0.344482 0.000701904 0.595459C0.050705 1.58145 0.714706 2.54346 1.6637 3.04947C1.9787 3.21747 2.3577 3.34848 2.6797 3.17947C2.9827 3.02148 3.10071 2.67847 3.0417 2.35446C2.94371 1.82547 2.50871 1.38846 2.16971 0.96048C2.16971 0.96048 2.16971 0.96048 2.16971 0.96048Z" fill="#FFCD5C" transform="translate(131.248 97.961)" />
          <path d="M2.14871 1.82248C2.21571 1.28748 2.28671 0.629486 1.74071 0.218475C1.6517 0.152466 1.5437 0.106476 1.4337 0.0834656C1.2027 -0.0415344 0.930695 -0.029541 0.749695 0.142456C0.0386963 0.822449 -0.18631 1.88846 0.159698 2.84946C0.274704 3.16745 0.467697 3.50546 0.845703 3.61044C1.20171 3.70944 1.5567 3.56445 1.7597 3.31345C2.08871 2.90149 2.0847 2.32849 2.14871 1.82248C2.14871 1.82248 2.14871 1.82248 2.14871 1.82248Z" fill="#FFCD5C" transform="translate(115.821 98.781)" />
          <path d="M2.01366 1.23315C1.78065 0.722168 1.48566 0.0991516 0.847656 0.00616455C0.74366 -0.0088501 0.635658 0.00415039 0.539658 0.0391541C0.295654 0.0431519 0.0916595 0.189148 0.0446548 0.43515C-0.140343 1.39816 0.260658 2.46317 1.03966 3.14716C1.29866 3.37415 1.62666 3.57816 1.97066 3.48117C2.29465 3.39017 2.48866 3.08316 2.50866 2.75717C2.54266 2.22617 2.23366 1.71515 2.01366 1.23315C2.01366 1.23315 2.01366 1.23315 2.01366 1.23315Z" fill="#FFCD5C" transform="translate(38.705 25.428)" />
          <path d="M2.10259 1.20819C1.82359 0.697205 1.47359 0.077179 0.810593 0.00418091C0.702591 -0.00881958 0.59259 0.00918579 0.49659 0.0481873C0.24559 0.0611877 0.0465927 0.215179 0.0175934 0.465179C-0.10141 1.44617 0.391594 2.51218 1.24559 3.17917C1.52859 3.40018 1.88159 3.59515 2.22859 3.48618C2.5556 3.38318 2.73159 3.06616 2.72859 2.73618C2.72159 2.1962 2.36559 1.68921 2.10259 1.20819C2.10259 1.20819 2.10259 1.20819 2.10259 1.20819Z" fill="#FFCD5C" transform="translate(48.275 59.832)" />
          <path d="M2.0467 1.32721C1.8237 0.795197 1.5407 0.147217 0.8927 0.0132141C0.786697 -0.00878906 0.676697 -0.0027771 0.577698 0.0272217C0.328697 0.0162354 0.116699 0.151215 0.0606995 0.39621C-0.156303 1.35822 0.220703 2.46121 0.996696 3.20221C1.2547 3.44821 1.58369 3.6752 1.9377 3.59821C2.2707 3.52621 2.4787 3.22821 2.5087 2.90021C2.5577 2.3652 2.2567 1.8302 2.0467 1.32721C2.0467 1.32721 2.0467 1.32721 2.0467 1.32721Z" fill="#FFCD5C" transform="translate(9.795 24.899)" />
          <path d="M2.47881 1.96619C2.9998 1.7562 3.63181 1.48718 3.64981 0.864197C3.65282 0.762207 3.62581 0.657196 3.57481 0.561188C3.53882 0.322174 3.35582 0.117188 3.08781 0.0621948C2.03181 -0.151794 0.940811 0.198181 0.29982 0.929199C0.0878143 1.17221 -0.0931854 1.4852 0.0528259 1.8262C0.190826 2.14819 0.543823 2.35321 0.897827 2.38821C1.47481 2.44519 1.98779 2.16318 2.47881 1.96619C2.47881 1.96619 2.47881 1.96619 2.47881 1.96619Z" fill="#FFCD5C" transform="translate(97.754 90.821)" />
          <path d="M2.42232 1.95651C2.92532 1.7265 3.53632 1.43152 3.54132 0.810516C3.54233 0.708527 3.51332 0.60553 3.46233 0.512512C3.42233 0.275513 3.24033 0.0805054 2.97733 0.0375061C1.94432 -0.128479 0.888321 0.26651 0.279327 1.02249C0.0763245 1.2735 -0.0916748 1.59048 0.0563202 1.9245C0.19632 2.23849 0.545319 2.42651 0.89032 2.4455C1.45432 2.4765 1.94731 2.1745 2.42232 1.95651C2.42232 1.95651 2.42232 1.95651 2.42232 1.95651Z" fill="#FFCD5C" transform="translate(120.393 82.903)" />
          <path d="M2.12895 1.83939C2.41095 1.51837 2.74495 1.11539 2.45395 0.562378C2.40695 0.472382 2.33395 0.385376 2.24995 0.315369C2.10596 0.113373 1.87195 -0.0196228 1.64595 0.00238037C0.760956 0.089386 0.125946 0.68338 0.0139465 1.49838C-0.023056 1.76938 -0.00205994 2.09137 0.272949 2.35437C0.532944 2.60236 0.893951 2.69037 1.17094 2.62738C1.62495 2.5264 1.86296 2.1434 2.12895 1.83939C2.12895 1.83939 2.12895 1.83939 2.12895 1.83939Z" fill="#FFCD5C" transform="translate(109.077 85.429)" />
          <path d="M2.05055 1.87045C2.37355 1.59244 2.76055 1.24146 2.56555 0.658447C2.53355 0.563446 2.47755 0.469452 2.40656 0.388458C2.29955 0.171448 2.09255 0.0104675 1.87155 0.00146484C1.00155 -0.0305481 0.293549 0.469452 0.0575485 1.25546C-0.0204544 1.51645 -0.0504532 1.83646 0.174545 2.13147C0.386543 2.40948 0.723549 2.54346 1.00155 2.51846C1.45555 2.47745 1.74655 2.13345 2.05055 1.87045C2.05055 1.87045 2.05055 1.87045 2.05055 1.87045Z" fill="#FFCD5C" transform="translate(50.458 35.86)" />
          <path d="M2.11249 1.86618C2.41548 1.56519 2.77748 1.18719 2.52748 0.615173C2.48648 0.521179 2.42049 0.430176 2.34148 0.354187C2.21347 0.142181 1.98747 -0.00579834 1.76248 0.000183105C0.874481 0.025177 0.199478 0.573181 0.0304871 1.37817C-0.0255127 1.64618 -0.0275116 1.96918 0.228485 2.25116C0.469482 2.51715 0.823486 2.62915 1.10349 2.58517C1.56149 2.51517 1.82649 2.15018 2.11249 1.86618C2.11249 1.86618 2.11249 1.86618 2.11249 1.86618Z" fill="#FFCD5C" transform="translate(76.753 68.289)" />
          <path d="M1.99841 1.88083C2.34541 1.63284 2.76241 1.31882 2.6294 0.72583C2.6084 0.628845 2.5614 0.530823 2.5004 0.444824C2.4174 0.219818 2.2294 0.0428162 2.0134 0.0158386C1.15941 -0.0901489 0.410408 0.342835 0.0984039 1.09985C-0.00559235 1.35086 -0.0675964 1.66486 0.124405 1.97687C0.305405 2.27087 0.623405 2.43185 0.899406 2.43185C1.35041 2.43085 1.67141 2.11484 1.99841 1.88083C1.99841 1.88083 1.99841 1.88083 1.99841 1.88083Z" fill="#FFCD5C" transform="translate(17.789 0)" />
          <path d="M2.04829 1.89337C2.38728 1.63538 2.79529 1.30838 2.63129 0.712372C2.60429 0.615387 2.55228 0.517365 2.48629 0.431366C2.39029 0.20636 2.19129 0.0323792 1.96929 0.010376C1.09629 -0.0756226 0.358292 0.379364 0.0782928 1.15137C-0.01371 1.40836 -0.0617065 1.72638 0.149292 2.03638C0.348289 2.32837 0.678291 2.48337 0.95929 2.47638C1.41728 2.46439 1.72829 2.13739 2.04829 1.89337C2.04829 1.89337 2.04829 1.89337 2.04829 1.89337Z" fill="#FFCD5C" transform="translate(23.649 22.404)" />
          <path d="M2.10136 1.87503C2.41437 1.58502 2.78937 1.22003 2.55936 0.640045C2.52136 0.545044 2.45836 0.452057 2.38336 0.37204C2.26236 0.156036 2.04337 0.0010376 1.81737 3.05176e-05C0.930374 -0.00497437 0.237366 0.52002 0.0403748 1.31802C-0.0246277 1.58304 -0.0376282 1.90604 0.207382 2.19702C0.438385 2.47003 0.788376 2.59402 1.06938 2.56003C1.52937 2.50604 1.80637 2.14905 2.10136 1.87503C2.10136 1.87503 2.10136 1.87503 2.10136 1.87503Z" fill="#FFCD5C" transform="translate(61.609 58.859)" />
        </g>
      </g>
    </g>
  </g>
</svg>